<svg xmlns="http://www.w3.org/2000/svg" xmlns:xlink="http://www.w3.org/1999/xlink" width="200" zoomAndPan="magnify" viewBox="0 0 150 149.999998" height="200" preserveAspectRatio="xMidYMid meet" version="1.0"><defs><clipPath id="a30a76ff11"><path d="M 20.191406 26.824219 L 129.691406 26.824219 L 129.691406 122.824219 L 20.191406 122.824219 Z M 20.191406 26.824219 " clip-rule="nonzero"/></clipPath></defs><g clip-path="url(#a30a76ff11)"><path stroke-linecap="round" transform="matrix(0.152358, 0, 0, 0.151949, 18.850924, 17.219805)" fill="none" stroke-linejoin="miter" d="M 368.199507 70.175046 C 359.431121 70.586369 351.483168 75.445122 347.098975 83.054598 C 238.032553 271.980402 128.966131 460.880499 19.89971 649.806303 C 15.284769 657.801394 15.310408 667.647439 19.89971 675.64253 C 24.51465 683.637621 33.026651 688.573498 42.28217 688.573498 C 259.492025 688.599205 476.701881 688.650621 693.911736 688.702036 C 703.141616 688.676328 711.627979 683.791868 716.242919 675.822484 C 720.883498 667.853101 720.909136 658.032764 716.319835 650.037672 C 608.176401 461.060453 500.007329 272.108941 391.863895 83.157429 C 387.043846 74.699599 377.91652 69.6866 368.199507 70.175046 Z M 368.199507 70.175046 " stroke="#000000" stroke-width="12.5" stroke-opacity="1" stroke-miterlimit="4"/></g><path stroke-linecap="round" transform="matrix(0.152358, 0, 0, 0.151949, 18.850924, 17.219805)" fill-opacity="1" fill="#ffcc00" fill-rule="evenodd" stroke-linejoin="round" d="M 369.455796 97.039581 C 260.697037 285.425523 151.938278 473.811466 43.179519 662.197409 C 259.774049 662.248824 476.394218 662.274532 692.988748 662.325948 C 585.152977 473.888589 477.291567 285.476939 369.455796 97.039581 Z M 369.455796 97.039581 " stroke="#000000" stroke-width="29.444" stroke-opacity="1" stroke-miterlimit="4"/><path fill="#030303" d="M 82.3125 104.136719 C 82.316406 104.570312 82.273438 105 82.191406 105.425781 C 82.109375 105.851562 81.984375 106.265625 81.820312 106.667969 C 81.652344 107.070312 81.453125 107.449219 81.210938 107.8125 C 80.96875 108.175781 80.695312 108.507812 80.386719 108.816406 C 80.082031 109.125 79.746094 109.398438 79.386719 109.640625 C 79.023438 109.882812 78.640625 110.085938 78.242188 110.253906 C 77.839844 110.417969 77.425781 110.546875 76.996094 110.628906 C 76.570312 110.714844 76.140625 110.757812 75.703125 110.757812 C 75.269531 110.757812 74.835938 110.714844 74.410156 110.628906 C 73.984375 110.546875 73.570312 110.417969 73.167969 110.253906 C 72.765625 110.085938 72.382812 109.882812 72.023438 109.640625 C 71.660156 109.398438 71.324219 109.125 71.019531 108.816406 C 70.710938 108.507812 70.4375 108.175781 70.195312 107.8125 C 69.957031 107.449219 69.753906 107.070312 69.585938 106.667969 C 69.421875 106.265625 69.296875 105.851562 69.214844 105.425781 C 69.132812 105 69.089844 104.570312 69.09375 104.136719 C 69.089844 103.699219 69.132812 103.269531 69.214844 102.84375 C 69.296875 102.417969 69.421875 102.003906 69.585938 101.601562 C 69.753906 101.203125 69.957031 100.820312 70.195312 100.457031 C 70.4375 100.097656 70.710938 99.761719 71.019531 99.453125 C 71.324219 99.144531 71.660156 98.871094 72.023438 98.628906 C 72.382812 98.386719 72.765625 98.183594 73.167969 98.015625 C 73.570312 97.851562 73.984375 97.726562 74.410156 97.640625 C 74.835938 97.554688 75.269531 97.511719 75.703125 97.511719 C 76.140625 97.511719 76.570312 97.554688 76.996094 97.640625 C 77.425781 97.726562 77.839844 97.851562 78.242188 98.015625 C 78.640625 98.183594 79.023438 98.386719 79.386719 98.628906 C 79.746094 98.871094 80.082031 99.144531 80.386719 99.453125 C 80.695312 99.761719 80.96875 100.097656 81.210938 100.457031 C 81.453125 100.820312 81.652344 101.203125 81.820312 101.601562 C 81.984375 102.003906 82.109375 102.417969 82.191406 102.84375 C 82.273438 103.269531 82.316406 103.699219 82.3125 104.136719 Z M 82.3125 104.136719 " fill-opacity="1" fill-rule="nonzero"/><path fill="#000000" d="M 74.96875 51.628906 C 71.246094 51.6875 68.269531 54.742188 68.320312 58.457031 L 69.378906 86.710938 C 69.46875 89.140625 69.917969 91.046875 72.019531 92.273438 C 74.125 93.496094 76.019531 93.496094 78.121094 92.273438 C 80.226562 91.046875 80.675781 89.140625 80.765625 86.710938 L 81.824219 58.457031 C 81.847656 56.636719 81.132812 54.882812 79.84375 53.597656 C 78.550781 52.3125 76.792969 51.601562 74.96875 51.628906 Z M 74.96875 51.628906 " fill-opacity="1" fill-rule="evenodd"/></svg>