<svg xmlns="http://www.w3.org/2000/svg" xmlns:xlink="http://www.w3.org/1999/xlink" width="200" zoomAndPan="magnify" viewBox="0 0 150 149.999998" height="200" preserveAspectRatio="xMidYMid meet" version="1.0"><defs><clipPath id="0d2d8e0084"><path d="M 24.375 17.144531 L 125.625 17.144531 L 125.625 46 L 24.375 46 Z M 24.375 17.144531 " clip-rule="nonzero"/></clipPath><clipPath id="5fa47934dc"><path d="M 31 53 L 119 53 L 119 132.644531 L 31 132.644531 Z M 31 53 " clip-rule="nonzero"/></clipPath></defs><g clip-path="url(#0d2d8e0084)"><path fill="#9f1111" d="M 122.007812 31.308594 L 96.695312 31.308594 L 96.695312 20.753906 C 96.695312 18.765625 95.070312 17.144531 93.078125 17.144531 L 56.921875 17.144531 C 54.929688 17.144531 53.304688 18.765625 53.304688 20.753906 L 53.304688 31.308594 L 27.992188 31.308594 C 26.003906 31.308594 24.375 32.933594 24.375 34.917969 L 24.375 42.136719 C 24.375 44.121094 26.003906 45.746094 27.992188 45.746094 L 122.007812 45.746094 C 123.996094 45.746094 125.625 44.121094 125.625 42.136719 L 125.625 34.917969 C 125.625 32.933594 123.996094 31.308594 122.007812 31.308594 Z M 122.007812 31.308594 " fill-opacity="1" fill-rule="nonzero"/></g><g clip-path="url(#5fa47934dc)"><path fill="#9f1111" d="M 40.285156 129.484375 C 40.46875 131.289062 42.003906 132.644531 43.902344 132.644531 L 106.1875 132.644531 C 107.996094 132.644531 109.53125 131.289062 109.804688 129.484375 L 118.480469 53.328125 L 31.609375 53.328125 Z M 89.464844 117.753906 L 95.792969 67.3125 C 96.0625 65.328125 97.871094 63.972656 99.859375 64.15625 C 101.847656 64.425781 103.203125 66.230469 103.023438 68.214844 L 96.695312 118.65625 C 96.425781 120.460938 94.886719 121.816406 93.078125 121.816406 C 92.898438 121.816406 92.808594 121.816406 92.628906 121.816406 C 90.640625 121.542969 89.28125 119.738281 89.464844 117.753906 Z M 71.382812 67.765625 C 71.382812 65.777344 73.011719 64.15625 75 64.15625 C 76.988281 64.15625 78.617188 65.777344 78.617188 67.765625 L 78.617188 118.207031 C 78.617188 120.191406 76.988281 121.816406 75 121.816406 C 73.011719 121.816406 71.382812 120.191406 71.382812 118.207031 Z M 50.140625 64.15625 C 52.128906 63.882812 53.9375 65.328125 54.207031 67.3125 L 60.535156 117.753906 C 60.808594 119.738281 59.359375 121.542969 57.371094 121.816406 C 57.191406 121.816406 57.101562 121.816406 56.921875 121.816406 C 55.113281 121.816406 53.574219 120.460938 53.304688 118.65625 L 46.976562 68.214844 C 46.796875 66.230469 48.152344 64.425781 50.140625 64.15625 Z M 50.140625 64.15625 " fill-opacity="1" fill-rule="nonzero"/></g></svg>