<svg xmlns="http://www.w3.org/2000/svg" xmlns:xlink="http://www.w3.org/1999/xlink" width="200" zoomAndPan="magnify" viewBox="0 0 150 149.999998" height="200" preserveAspectRatio="xMidYMid meet" version="1.0"><defs><clipPath id="81e5c8354d"><path d="M 17.058594 17.058594 L 133.308594 17.058594 L 133.308594 133.308594 L 17.058594 133.308594 Z M 17.058594 17.058594 " clip-rule="nonzero"/></clipPath><clipPath id="34eea82f56"><path d="M 32 26.117188 L 117.96875 26.117188 L 117.96875 123.617188 L 32 123.617188 Z M 32 26.117188 " clip-rule="nonzero"/></clipPath></defs><g clip-path="url(#81e5c8354d)"><path fill="#000000" d="M 17.058594 17.058594 L 17.058594 133.308594 L 133.308594 133.308594 L 133.308594 17.058594 Z M 130.339844 130.339844 L 20.027344 130.339844 L 20.027344 20.027344 L 130.335938 20.027344 L 130.335938 130.339844 Z M 130.339844 130.339844 " fill-opacity="1" fill-rule="nonzero"/></g><g clip-path="url(#34eea82f56)"><path fill="#000000" d="M 57.765625 116.527344 C 57.886719 116.5625 58.007812 116.597656 58.128906 116.636719 C 58.296875 116.140625 58.460938 115.640625 58.628906 115.144531 C 58.488281 115.105469 58.351562 115.066406 58.210938 115.027344 C 58.0625 115.527344 57.914062 116.027344 57.765625 116.527344 Z M 90.339844 47.90625 C 90.503906 48.050781 90.664062 48.191406 90.828125 48.335938 C 91.070312 48.003906 91.3125 47.667969 91.554688 47.332031 C 91.496094 47.292969 91.433594 47.253906 91.375 47.214844 C 91.03125 47.445312 90.683594 47.675781 90.339844 47.90625 Z M 108.085938 35.710938 C 108.195312 35.808594 108.308594 35.910156 108.417969 36.007812 C 108.71875 35.679688 109.019531 35.355469 109.320312 35.027344 C 109.25 34.960938 109.183594 34.890625 109.113281 34.824219 C 108.769531 35.121094 108.425781 35.417969 108.085938 35.710938 Z M 56.355469 120.945312 C 57.203125 120.199219 57.671875 119.34375 57.546875 118.3125 C 57.398438 118.265625 57.246094 118.222656 57.097656 118.175781 C 56.847656 119.101562 56.601562 120.023438 56.355469 120.945312 Z M 105.613281 35.695312 C 107.132812 34.46875 108.460938 33.574219 109.144531 31.605469 C 107.527344 32.75 106.152344 33.601562 105.613281 35.695312 Z M 96.042969 41.652344 C 93.320312 43.613281 92.925781 44.160156 92.761719 45.839844 C 93.933594 44.339844 94.988281 42.996094 96.042969 41.652344 Z M 46.382812 86.230469 C 46.523438 88.269531 47.660156 90.015625 49.660156 91.355469 C 48.417969 89.414062 47.398438 87.824219 46.382812 86.230469 Z M 47.628906 94.808594 C 47.773438 94.695312 47.917969 94.578125 48.058594 94.460938 C 46.933594 92.917969 45.808594 91.375 44.679688 89.828125 C 44.707031 92.171875 46.449219 93.289062 47.628906 94.808594 Z M 55.992188 99.976562 C 56.128906 99.851562 56.265625 99.730469 56.402344 99.605469 C 55.082031 97.636719 54.269531 95.332031 52.554688 93.621094 C 52.410156 93.714844 52.265625 93.8125 52.121094 93.90625 C 53.410156 95.929688 54.699219 97.953125 55.992188 99.976562 Z M 42.621094 95.074219 C 42.8125 94.960938 43.007812 94.847656 43.203125 94.734375 C 41.789062 92.558594 40.378906 90.378906 38.96875 88.203125 C 38.800781 88.3125 38.632812 88.417969 38.46875 88.527344 C 39.851562 90.707031 41.238281 92.890625 42.621094 95.074219 Z M 103.613281 41.800781 C 103.734375 41.902344 103.859375 42.003906 103.980469 42.105469 C 105.988281 40.265625 107.996094 38.425781 110.007812 36.585938 C 107.523438 37.945312 105.4375 39.734375 103.613281 41.800781 Z M 42.988281 82.820312 C 43.410156 82.171875 43.855469 81.785156 43.789062 81.539062 C 43.1875 79.324219 42.039062 77.46875 39.683594 75.972656 C 40.394531 78.597656 41.835938 80.386719 42.988281 82.820312 Z M 100.597656 37.109375 C 100.761719 37.246094 100.925781 37.378906 101.089844 37.515625 C 102.132812 36.308594 103.117188 35.046875 104.234375 33.914062 C 105.300781 32.835938 106.546875 31.9375 107.628906 30.871094 C 108.667969 29.84375 110.289062 29.457031 110.957031 28.03125 C 107.226562 29.875 101.257812 35.234375 100.597656 37.109375 Z M 33.699219 83.164062 C 34.417969 86.074219 37.375 90.371094 39.292969 91.503906 C 38.503906 90.015625 37.511719 88.632812 37.027344 87.09375 C 36.484375 85.355469 35.300781 84.375 33.699219 83.164062 Z M 63.367188 100.085938 C 63.535156 100.152344 63.703125 100.214844 63.871094 100.28125 C 65.992188 95.222656 68.109375 90.164062 70.230469 85.105469 C 67.082031 89.730469 65.015625 94.820312 63.367188 100.085938 Z M 103.59375 36.398438 C 102.917969 36.710938 102.695312 36.75 102.578125 36.882812 C 100.640625 39.019531 98.601562 41.078125 96.816406 43.335938 C 92.601562 48.664062 88.5 54.078125 84.382812 59.480469 C 83.839844 60.191406 83.480469 61.039062 83.035156 61.828125 C 83.433594 61.878906 83.574219 61.808594 83.65625 61.695312 C 88.980469 54.476562 94.433594 47.371094 100.539062 40.78125 C 101.625 39.613281 102.390625 38.144531 103.59375 36.398438 Z M 74.222656 81.46875 C 79.46875 73.121094 84.71875 64.773438 89.964844 56.425781 C 83.195312 63.828125 78.40625 72.480469 74.222656 81.46875 Z M 73.832031 78.730469 C 72.953125 79.210938 72.738281 80 73.042969 80.996094 C 73.285156 80.21875 73.527344 79.441406 73.769531 78.664062 C 74.777344 78.15625 75.011719 77.195312 75.199219 76.207031 C 75.613281 75.640625 76.03125 75.078125 76.445312 74.511719 C 76.292969 74.421875 76.140625 74.328125 75.988281 74.238281 C 75.691406 74.867188 75.394531 75.492188 75.097656 76.117188 C 74.675781 76.988281 74.25 77.855469 73.832031 78.730469 Z M 87.46875 65.625 C 86.507812 67.3125 85.53125 68.988281 84.589844 70.683594 C 80.773438 77.566406 76.839844 84.386719 73.210938 91.363281 C 71.324219 94.996094 69.992188 98.921875 68.363281 102.695312 C 67.878906 103.816406 67.394531 104.996094 66.648438 105.941406 C 64.820312 108.257812 63.800781 110.914062 62.953125 113.671875 C 62.851562 114.007812 62.625 114.304688 62.457031 114.613281 C 62.71875 113.210938 62.984375 111.8125 63.246094 110.410156 C 62.605469 110.96875 62.300781 111.683594 61.863281 112.300781 C 61.113281 113.363281 61.609375 114.003906 62.492188 114.574219 C 62.492188 115.34375 62.492188 116.109375 62.492188 117.125 C 61.710938 116.757812 61.148438 116.496094 60.503906 116.191406 C 59.324219 116.515625 58.796875 117.503906 58.414062 118.632812 C 57.992188 119.867188 57.585938 121.105469 57.113281 122.320312 C 56.832031 123.054688 56.378906 123.601562 55.238281 122.925781 C 55.609375 121.335938 56.078125 119.691406 56.363281 118.011719 C 56.632812 116.429688 58.035156 114.898438 56.679688 112.898438 C 55.832031 114.472656 55.101562 115.824219 54.375 117.175781 C 54.210938 117.101562 54.050781 117.027344 53.886719 116.953125 C 54.113281 115.164062 55.519531 113.746094 55.757812 111.722656 C 55.144531 111.957031 54.621094 112.160156 53.722656 112.503906 C 54.757812 110.660156 53.90625 109.636719 52.878906 108.511719 C 48.527344 103.761719 44.230469 98.957031 39.960938 94.132812 C 37.171875 90.980469 34.648438 87.625 32.597656 83.925781 C 32.136719 83.101562 31.765625 82.394531 32.882812 81.453125 C 34.257812 82.65625 35.636719 83.867188 37.015625 85.078125 C 37.121094 85.023438 37.226562 84.96875 37.332031 84.914062 C 36.789062 83.550781 36.257812 82.1875 35.695312 80.832031 C 35.476562 80.300781 35.152344 79.808594 34.949219 79.269531 C 34.832031 78.953125 34.691406 78.410156 34.839844 78.265625 C 35.203125 77.921875 35.804688 77.832031 36.171875 77.492188 C 36.515625 77.167969 35.757812 76.484375 36.640625 76.074219 C 37.398438 75.726562 37.9375 74.910156 38.839844 74.046875 C 39.152344 74.269531 39.753906 74.59375 40.226562 75.050781 C 43.152344 77.894531 45.535156 81.179688 47.785156 84.558594 C 49.554688 87.210938 51.132812 89.996094 53.019531 92.5625 C 54.929688 95.164062 57.113281 97.566406 59.335938 100.246094 C 60.621094 97.460938 61.800781 94.914062 62.976562 92.363281 C 63.707031 90.789062 64.445312 89.21875 65.164062 87.636719 C 65.34375 87.242188 65.71875 86.652344 65.578125 86.449219 C 64.652344 85.101562 65.5625 84.085938 66.128906 83.078125 C 69.171875 77.644531 72.257812 72.234375 75.34375 66.828125 C 76.597656 64.632812 77.832031 62.417969 79.183594 60.277344 C 84.113281 52.492188 89.039062 44.703125 94.074219 36.984375 C 95.65625 34.566406 97.484375 32.289062 99.367188 30.089844 C 100.53125 28.734375 101.976562 27.605469 103.371094 26.476562 C 103.75 26.167969 104.417969 26.128906 104.957031 26.121094 C 105.554688 26.113281 106.152344 26.28125 106.886719 26.394531 C 106.617188 27.570312 105.34375 27.535156 104.699219 28.195312 C 104 28.914062 103.3125 29.640625 102.636719 30.347656 C 103.382812 31.390625 103.382812 31.390625 102.683594 32.992188 C 103.234375 32.691406 103.578125 32.554688 103.863281 32.34375 C 106.007812 30.734375 108.109375 29.074219 110.285156 27.515625 C 111.019531 26.984375 111.890625 26.488281 112.925781 26.980469 C 113.207031 28.070312 112.097656 28.421875 111.792969 29.191406 C 112.429688 31.203125 111.476562 32.699219 110.128906 34.164062 C 112.425781 32.679688 114.496094 30.488281 117.890625 32.277344 C 117.140625 32.914062 116.59375 33.445312 115.984375 33.886719 C 109.980469 38.273438 104.550781 43.3125 99.835938 49.03125 C 96.023438 53.664062 92.671875 58.675781 89.105469 63.515625 C 88.558594 64.257812 87.96875 64.96875 87.394531 65.691406 C 87.515625 65.117188 87.640625 64.539062 87.761719 63.960938 C 88.332031 63.234375 88.90625 62.507812 89.476562 61.78125 C 89.324219 61.6875 89.175781 61.59375 89.027344 61.5 C 88.621094 62.332031 88.210938 63.164062 87.804688 63.996094 C 85.945312 65.527344 85.078125 67.703125 84.011719 69.75 C 84.78125 69.023438 85.308594 68.125 85.925781 67.296875 C 86.375 66.691406 86.949219 66.179688 87.46875 65.625 " fill-opacity="1" fill-rule="nonzero"/></g></svg>