<svg xmlns="http://www.w3.org/2000/svg" xmlns:xlink="http://www.w3.org/1999/xlink" width="1080" zoomAndPan="magnify" viewBox="0 0 810 809.999993" height="1080" preserveAspectRatio="xMidYMid meet" version="1.0"><defs><g/><clipPath id="66b9df2a9e"><path d="M 206.226562 142.773438 L 324.160156 142.773438 L 324.160156 237.113281 L 206.226562 237.113281 Z M 206.226562 142.773438 " clip-rule="nonzero"/></clipPath><clipPath id="6b7f90f9d5"><path d="M 150 101.84375 L 244 101.84375 L 244 156.871094 L 150 156.871094 Z M 150 101.84375 " clip-rule="nonzero"/></clipPath><clipPath id="34fdd9fd1d"><path d="M 102.925781 166.078125 L 212.984375 166.078125 L 212.984375 260.417969 L 102.925781 260.417969 Z M 102.925781 166.078125 " clip-rule="nonzero"/></clipPath></defs><path stroke-linecap="butt" transform="matrix(0.75, 0, 0, 0.75, 128.543479, 464.377197)" fill="none" stroke-linejoin="miter" d="M 95.832658 36.85124 C 95.832658 35.064781 96.395158 33.606448 97.525367 32.476239 C 98.70245 31.304364 100.353492 30.715823 102.488909 30.715823 L 262.275375 30.715823 C 264.452458 30.715823 266.1035 31.304364 267.233709 32.476239 C 268.410792 33.606448 268.994125 35.064781 268.994125 36.85124 L 268.994125 68.622075 C 268.994125 72.017908 267.041 73.710617 263.124333 73.710617 L 215.822248 73.710617 C 213.686831 73.710617 212.624331 74.60645 212.624331 76.3877 L 212.624331 223.127291 C 212.624331 225.085624 212.165997 226.564791 211.254539 227.564791 C 210.384747 228.523124 209.145164 229.002291 207.535789 229.002291 L 156.770161 229.002291 C 153.551411 229.002291 151.942036 227.215833 151.942036 223.648124 L 151.942036 77.497075 C 151.942036 74.976242 150.962869 73.710617 149.009744 73.710617 L 101.962867 73.710617 C 97.874325 73.710617 95.832658 72.017908 95.832658 68.622075 Z M 287.957668 229.002291 C 286.520168 229.002291 285.343085 228.523124 284.431626 227.564791 C 283.561834 226.564791 283.129543 225.174166 283.129543 223.387707 C 283.129543 222.127291 283.410793 220.689791 283.973293 219.080416 L 348.634754 36.85124 C 349.504546 34.543948 350.483713 32.955406 351.572255 32.085614 C 352.655588 31.174156 354.353505 30.715823 356.660796 30.715823 L 409.311841 30.715823 C 411.447258 30.715823 413.358716 31.387698 415.056633 32.736656 C 416.754549 34.043948 418.0358 35.762698 418.905591 37.892906 L 483.041011 219.929374 C 483.389969 221.366874 483.567053 222.429374 483.567053 223.127291 C 483.567053 224.736666 483.218094 226.127291 482.520178 227.304374 C 481.822261 228.434583 480.759761 229.002291 479.322261 229.002291 L 426.931633 229.002291 C 423.884758 229.002291 421.926425 227.476249 421.056633 224.434582 L 410.619132 193.700206 C 410.098299 192.481456 409.598299 191.658539 409.119132 191.221039 C 408.681632 190.741872 407.858716 190.502289 406.639966 190.502289 L 349.942046 190.502289 C 347.806629 190.502289 346.483713 191.481456 345.957671 193.439789 L 334.999337 225.017916 C 333.910795 227.674166 331.780587 229.002291 328.603503 229.002291 Z M 393.264965 145.090828 C 395.21809 145.090828 396.197257 144.200203 396.197257 142.418953 C 396.197257 142.069995 396.025382 141.17937 395.676423 139.74187 L 379.624339 94.069993 C 379.280589 93.158534 378.733714 92.700201 377.994131 92.700201 C 377.301422 92.700201 376.775381 93.158534 376.431631 94.069993 L 360.11913 139.481453 C 359.770172 140.17937 359.598297 141.069995 359.598297 142.158537 C 359.598297 144.111662 360.660797 145.090828 362.791005 145.090828 Z M 689.134771 220.715832 C 689.832688 222.148124 690.181647 223.585624 690.181647 225.017916 C 690.181647 227.674166 688.572271 229.002291 685.353521 229.002291 L 633.218102 229.002291 C 628.436852 229.002291 625.238935 227.215833 623.62956 223.648124 L 591.004558 149.33562 C 590.31185 148.288745 589.613933 147.767912 588.916016 147.767912 C 588.004558 147.767912 586.744141 148.747079 585.134766 150.705412 L 566.145182 175.038747 C 565.103515 176.257497 564.582682 178.21583 564.582682 180.913747 L 564.582682 221.236666 C 564.582682 224.106457 563.863932 226.127291 562.426432 227.304374 C 560.99414 228.434583 558.77539 229.002291 555.770181 229.002291 L 511.145179 229.002291 C 508.447262 229.002291 506.556637 228.476249 505.468096 227.434583 C 504.421221 226.346041 503.900387 224.648124 503.900387 222.346041 L 503.900387 36.85124 C 503.900387 34.892906 504.337887 33.392906 505.207679 32.346031 C 506.119137 31.257489 507.379554 30.715823 508.988929 30.715823 L 559.754557 30.715823 C 562.973307 30.715823 564.582682 32.585614 564.582682 36.325198 L 564.582682 103.92416 C 564.582682 106.054368 565.014974 107.116868 565.884765 107.116868 C 566.624349 107.116868 567.514974 106.512702 568.561849 105.293951 L 617.75456 36.325198 C 619.363935 34.19499 620.91081 32.736656 622.389976 31.955406 C 623.91081 31.127281 626.197268 30.715823 629.238935 30.715823 L 669.889979 30.715823 C 672.020187 30.715823 673.697271 31.127281 674.910812 31.955406 C 676.176438 32.736656 676.806646 33.825198 676.806646 35.215823 C 676.806646 36.481448 676.369146 37.564781 675.499354 38.481448 L 631.655602 92.179367 C 630.395185 93.611659 629.759769 95.111659 629.759769 96.679368 C 629.759769 97.939784 630.12956 99.288743 630.869144 100.726243 Z M 828.31707 83.892909 C 824.051445 79.236658 819.462903 75.66895 814.546236 73.189783 C 809.676444 70.710616 802.608736 69.471033 793.34311 69.471033 C 784.077485 69.471033 777.202484 70.819991 772.723317 73.517908 C 768.285817 76.16895 766.067067 79.366867 766.067067 83.10645 C 766.067067 89.502284 771.764984 94.028326 783.166026 96.679368 L 827.530612 108.226243 C 843.754571 112.314785 855.957697 119.497077 864.13478 129.757494 C 872.353531 139.981453 876.468114 152.226245 876.468114 166.491871 C 876.468114 179.674164 872.988947 191.158539 866.025405 200.944998 C 859.067072 210.731457 849.129571 218.299165 836.207696 223.648124 C 823.291028 229.002291 808.197277 231.674166 790.926443 231.674166 C 771.311859 231.674166 753.43165 228.434583 737.296232 221.955416 C 721.202481 215.429374 710.046231 206.903332 703.822272 196.377289 C 702.910814 194.590831 702.45248 193.267914 702.45248 192.398122 C 702.45248 190.611664 703.431647 189.002289 705.389981 187.569997 L 732.92644 168.580413 C 734.879565 167.361663 736.666024 166.752288 738.275399 166.752288 C 740.233732 166.752288 741.843107 167.538746 743.103524 169.101246 C 749.1504 176.976247 755.280608 182.523122 761.504567 185.741872 C 767.764984 188.918956 776.051443 190.502289 786.358735 190.502289 C 796.363944 190.502289 804.259777 189.132497 810.046236 186.392914 C 815.832695 183.611664 818.72332 179.825205 818.72332 175.038747 C 818.72332 171.648121 817.28582 168.710621 814.416028 166.231455 C 811.587903 163.710621 807.416027 161.819996 801.889985 160.554371 L 761.238942 150.705412 C 745.233733 146.788745 732.509774 139.439786 723.072273 128.653328 C 713.634773 117.86166 708.910814 105.444993 708.910814 91.392909 C 708.910814 79.783533 712.285814 69.122075 719.025398 59.424157 C 725.811857 49.72624 735.42644 42.06999 747.863941 36.455406 C 760.348317 30.846031 774.791026 28.038739 791.18686 28.038739 C 807.238944 28.038739 822.113945 30.674156 835.817071 35.934573 C 849.520196 41.153323 859.41603 48.137699 865.504572 56.877282 C 866.723322 58.486657 867.332697 60.012699 867.332697 61.444991 C 867.332697 62.663741 866.723322 63.819991 865.504572 64.903324 L 836.337904 86.04395 C 835.468112 86.741867 834.488945 87.090826 833.405612 87.090826 C 832.186862 87.090826 830.488945 86.023117 828.31707 83.892909 Z M 828.31707 83.892909 " stroke="#5e17eb" stroke-width="10.021988" stroke-opacity="1" stroke-miterlimit="4"/><g fill="#eec126" fill-opacity="1"><g transform="translate(26.100196, 452.27153)"><g><path d="M 137.84375 -139.546875 C 140.101562 -139.546875 141.234375 -138.789062 141.234375 -137.28125 C 141.234375 -136.90625 140.984375 -136.21875 140.484375 -135.21875 L 96.46875 -64.125 C 95.59375 -62.875 95.0625 -61.492188 94.875 -59.984375 C 94.6875 -58.484375 94.59375 -55.726562 94.59375 -51.71875 L 94.59375 -5.453125 C 94.59375 -3.441406 94.09375 -2.03125 93.09375 -1.21875 C 92.09375 -0.40625 90.523438 0 88.390625 0 L 56.796875 0 C 54.910156 0 53.625 -0.375 52.9375 -1.125 C 52.25 -1.875 51.90625 -3.066406 51.90625 -4.703125 L 51.90625 -54.15625 C 51.90625 -55.914062 51.71875 -57.328125 51.34375 -58.390625 C 50.96875 -59.453125 50.273438 -60.800781 49.265625 -62.4375 L 5.265625 -134.28125 C 4.765625 -135.15625 4.515625 -135.96875 4.515625 -136.71875 C 4.515625 -138.601562 5.894531 -139.546875 8.65625 -139.546875 L 46.453125 -139.546875 C 48.203125 -139.546875 49.484375 -139.289062 50.296875 -138.78125 C 51.117188 -138.28125 51.96875 -137.21875 52.84375 -135.59375 L 75.984375 -93.84375 C 76.609375 -92.59375 77.109375 -91.96875 77.484375 -91.96875 C 78.109375 -91.96875 78.671875 -92.53125 79.171875 -93.65625 L 101.9375 -135.59375 C 102.6875 -137.21875 103.5 -138.28125 104.375 -138.78125 C 105.25 -139.289062 106.566406 -139.546875 108.328125 -139.546875 Z M 137.84375 -139.546875 "/></g></g></g><g fill="#eec126" fill-opacity="1"><g transform="translate(171.660602, 452.27153)"><g><path d="M 73.53125 1.875 C 59.863281 1.875 47.921875 -1.035156 37.703125 -6.859375 C 27.484375 -12.691406 19.613281 -20.96875 14.09375 -31.6875 C 8.582031 -42.40625 5.828125 -54.972656 5.828125 -69.390625 C 5.828125 -83.804688 8.613281 -96.4375 14.1875 -107.28125 C 19.769531 -118.132812 27.671875 -126.535156 37.890625 -132.484375 C 48.109375 -138.441406 59.988281 -141.421875 73.53125 -141.421875 C 86.945312 -141.421875 98.734375 -138.441406 108.890625 -132.484375 C 119.046875 -126.535156 126.910156 -118.132812 132.484375 -107.28125 C 138.066406 -96.4375 140.859375 -83.804688 140.859375 -69.390625 C 140.859375 -55.097656 138.097656 -42.5625 132.578125 -31.78125 C 127.066406 -21 119.234375 -12.691406 109.078125 -6.859375 C 98.921875 -1.035156 87.070312 1.875 73.53125 1.875 Z M 73.53125 -27.453125 C 79.050781 -27.453125 83.441406 -28.800781 86.703125 -31.5 C 89.960938 -34.195312 92.34375 -38.550781 93.84375 -44.5625 C 95.34375 -50.582031 96.09375 -58.671875 96.09375 -68.828125 C 96.09375 -84.378906 94.335938 -95.539062 90.828125 -102.3125 C 87.316406 -109.082031 81.550781 -112.46875 73.53125 -112.46875 C 65.382812 -112.46875 59.523438 -109.082031 55.953125 -102.3125 C 52.378906 -95.539062 50.59375 -84.378906 50.59375 -68.828125 C 50.59375 -58.671875 51.34375 -50.582031 52.84375 -44.5625 C 54.351562 -38.550781 56.765625 -34.195312 60.078125 -31.5 C 63.398438 -28.800781 67.882812 -27.453125 73.53125 -27.453125 Z M 73.53125 -27.453125 "/></g></g></g><g fill="#eec126" fill-opacity="1"><g transform="translate(318.349374, 452.27153)"><g><path d="M 128.640625 -55.109375 C 128.640625 -34.546875 123.4375 -19.90625 113.03125 -11.1875 C 102.625 -2.476562 87.765625 1.875 68.453125 1.875 C 46.765625 1.875 31.3125 -3.132812 22.09375 -13.15625 C 12.882812 -23.1875 8.28125 -38.421875 8.28125 -58.859375 L 8.28125 -135.21875 C 8.28125 -136.59375 8.59375 -137.65625 9.21875 -138.40625 C 9.84375 -139.164062 10.71875 -139.546875 11.84375 -139.546875 L 47.578125 -139.546875 C 49.835938 -139.546875 50.96875 -138.226562 50.96875 -135.59375 L 50.96875 -54.34375 C 50.96875 -45.070312 52.753906 -38.363281 56.328125 -34.21875 C 59.898438 -30.082031 65.007812 -28.015625 71.65625 -28.015625 C 78.175781 -28.015625 83.441406 -30.082031 87.453125 -34.21875 C 91.460938 -38.363281 93.46875 -45.265625 93.46875 -54.921875 L 93.46875 -135.21875 C 93.46875 -138.101562 94.660156 -139.546875 97.046875 -139.546875 L 125.25 -139.546875 C 127.507812 -139.546875 128.640625 -138.226562 128.640625 -135.59375 Z M 128.640625 -55.109375 "/></g></g></g><g fill="#eec126" fill-opacity="1"><g transform="translate(455.258927, 452.27153)"><g><path d="M 131.828125 -6.015625 C 132.078125 -5.515625 132.203125 -4.828125 132.203125 -3.953125 C 132.203125 -2.816406 131.859375 -1.875 131.171875 -1.125 C 130.484375 -0.375 129.578125 0 128.453125 0 L 91.96875 0 C 89.332031 0 87.640625 -1.316406 86.890625 -3.953125 L 69.203125 -52.46875 C 68.828125 -53.46875 68.203125 -54.21875 67.328125 -54.71875 C 66.453125 -55.226562 65.132812 -55.484375 63.375 -55.484375 L 54.71875 -55.484375 C 53.96875 -55.484375 53.40625 -55.226562 53.03125 -54.71875 C 52.65625 -54.21875 52.46875 -53.78125 52.46875 -53.40625 L 52.46875 -5.453125 C 52.46875 -3.441406 51.960938 -2.03125 50.953125 -1.21875 C 49.953125 -0.40625 48.390625 0 46.265625 0 L 14.671875 0 C 12.785156 0 11.5 -0.375 10.8125 -1.125 C 10.125 -1.875 9.78125 -3.066406 9.78125 -4.703125 L 9.78125 -135.21875 C 9.78125 -138.101562 10.972656 -139.546875 13.359375 -139.546875 L 76.171875 -139.546875 C 94.347656 -139.546875 108.453125 -136.066406 118.484375 -129.109375 C 128.515625 -122.148438 133.53125 -112.335938 133.53125 -99.671875 C 133.53125 -91.023438 131.238281 -83.316406 126.65625 -76.546875 C 122.082031 -69.773438 116.160156 -65.007812 108.890625 -62.25 C 108.140625 -61.875 107.765625 -61.25 107.765625 -60.375 C 107.765625 -59.988281 107.890625 -59.421875 108.140625 -58.671875 Z M 74.46875 -83.5 C 79.238281 -83.5 82.90625 -84.71875 85.46875 -87.15625 C 88.039062 -89.601562 89.328125 -92.898438 89.328125 -97.046875 C 89.328125 -101.679688 87.789062 -105.28125 84.71875 -107.84375 C 81.644531 -110.414062 77.851562 -111.703125 73.34375 -111.703125 L 56.796875 -111.703125 C 55.160156 -111.703125 54.03125 -111.421875 53.40625 -110.859375 C 52.78125 -110.296875 52.46875 -109.328125 52.46875 -107.953125 L 52.46875 -87.453125 C 52.46875 -86.066406 52.6875 -85.0625 53.125 -84.4375 C 53.5625 -83.8125 54.410156 -83.5 55.671875 -83.5 Z M 74.46875 -83.5 "/></g></g></g><g fill="#eec126" fill-opacity="1"><g transform="translate(594.23716, 452.27153)"><g><path d="M 92.90625 -102.125 C 89.894531 -105.375 86.664062 -107.875 83.21875 -109.625 C 79.769531 -111.382812 74.785156 -112.265625 68.265625 -112.265625 C 61.742188 -112.265625 56.914062 -111.320312 53.78125 -109.4375 C 50.644531 -107.5625 49.078125 -105.3125 49.078125 -102.6875 C 49.078125 -98.164062 53.09375 -94.96875 61.125 -93.09375 L 92.34375 -85 C 103.75 -82.113281 112.332031 -77.066406 118.09375 -69.859375 C 123.863281 -62.648438 126.75 -54.03125 126.75 -44 C 126.75 -34.726562 124.300781 -26.644531 119.40625 -19.75 C 114.519531 -12.851562 107.53125 -7.523438 98.4375 -3.765625 C 89.351562 -0.00390625 78.734375 1.875 66.578125 1.875 C 52.785156 1.875 40.210938 -0.410156 28.859375 -4.984375 C 17.515625 -9.554688 9.648438 -15.539062 5.265625 -22.9375 C 4.640625 -24.195312 4.328125 -25.140625 4.328125 -25.765625 C 4.328125 -27.015625 5.015625 -28.144531 6.390625 -29.15625 L 25.765625 -42.5 C 27.140625 -43.375 28.394531 -43.8125 29.53125 -43.8125 C 30.90625 -43.8125 32.03125 -43.25 32.90625 -42.125 C 37.175781 -36.601562 41.503906 -32.710938 45.890625 -30.453125 C 50.273438 -28.203125 56.101562 -27.078125 63.375 -27.078125 C 70.394531 -27.078125 75.941406 -28.046875 80.015625 -29.984375 C 84.085938 -31.929688 86.125 -34.597656 86.125 -37.984375 C 86.125 -40.367188 85.117188 -42.4375 83.109375 -44.1875 C 81.109375 -45.945312 78.164062 -47.265625 74.28125 -48.140625 L 45.703125 -55.109375 C 34.421875 -57.859375 25.457031 -63.023438 18.8125 -70.609375 C 12.164062 -78.203125 8.84375 -86.953125 8.84375 -96.859375 C 8.84375 -105.003906 11.222656 -112.492188 15.984375 -119.328125 C 20.742188 -126.160156 27.507812 -131.550781 36.28125 -135.5 C 45.0625 -139.445312 55.222656 -141.421875 66.765625 -141.421875 C 78.046875 -141.421875 88.515625 -139.570312 98.171875 -135.875 C 107.828125 -132.175781 114.785156 -127.253906 119.046875 -121.109375 C 119.921875 -119.984375 120.359375 -118.921875 120.359375 -117.921875 C 120.359375 -117.035156 119.921875 -116.21875 119.046875 -115.46875 L 98.546875 -100.609375 C 97.921875 -100.109375 97.226562 -99.859375 96.46875 -99.859375 C 95.59375 -99.859375 94.40625 -100.613281 92.90625 -102.125 Z M 92.90625 -102.125 "/></g></g></g><g clip-path="url(#66b9df2a9e)"><path fill="#5e17eb" d="M 220.671875 142.78125 L 309.714844 142.78125 C 317.6875 142.78125 324.160156 149.386719 324.160156 157.546875 L 324.160156 222.339844 C 324.160156 230.496094 317.6875 237.105469 309.714844 237.105469 L 220.671875 237.105469 C 212.699219 237.105469 206.226562 230.496094 206.226562 222.339844 L 206.226562 157.546875 C 206.226562 149.386719 212.699219 142.78125 220.671875 142.78125 " fill-opacity="1" fill-rule="nonzero"/></g><g clip-path="url(#6b7f90f9d5)"><path fill="#090000" d="M 221.128906 107.597656 L 215.425781 101.785156 L 189.875 127.839844 L 195.570312 133.652344 Z M 238.230469 101.785156 L 195.554688 145.253906 L 178.746094 128.125 L 173.042969 133.9375 L 195.554688 156.871094 L 243.917969 107.597656 Z M 150.253906 133.9375 L 172.765625 156.871094 L 178.46875 151.066406 L 155.957031 128.125 Z M 150.253906 133.9375 " fill-opacity="1" fill-rule="nonzero"/></g><g clip-path="url(#34fdd9fd1d)"><path fill="#eec126" d="M 117.363281 166.085938 L 198.558594 166.085938 C 206.523438 166.085938 212.984375 172.699219 212.984375 180.851562 L 212.984375 245.644531 C 212.984375 253.792969 206.523438 260.410156 198.558594 260.410156 L 117.363281 260.410156 C 109.390625 260.410156 102.925781 253.792969 102.925781 245.644531 L 102.925781 180.851562 C 102.925781 172.699219 109.390625 166.085938 117.363281 166.085938 " fill-opacity="1" fill-rule="nonzero"/></g><path fill="#5e17eb" d="M 136.8125 246.855469 C 135.277344 246.855469 134.085938 246.382812 133.234375 245.4375 C 132.398438 244.476562 131.984375 243.09375 131.984375 241.285156 L 131.984375 183.269531 C 131.984375 182.664062 131.683594 182.359375 131.074219 182.359375 L 123.617188 182.359375 C 121.808594 182.359375 120.425781 182.039062 119.464844 181.378906 C 118.519531 180.730469 118.046875 179.785156 118.046875 178.546875 C 118.046875 177.3125 118.519531 176.367188 119.464844 175.710938 C 120.425781 175.058594 121.808594 174.730469 123.617188 174.730469 L 150.007812 174.730469 C 151.804688 174.730469 153.1875 175.058594 154.160156 175.710938 C 155.121094 176.367188 155.609375 177.3125 155.609375 178.546875 C 155.609375 179.785156 155.121094 180.730469 154.160156 181.378906 C 153.1875 182.039062 151.804688 182.359375 150.007812 182.359375 L 142.582031 182.359375 C 141.976562 182.359375 141.671875 182.664062 141.671875 183.269531 L 141.671875 241.285156 C 141.671875 243.09375 141.242188 244.476562 140.390625 245.4375 C 139.554688 246.382812 138.363281 246.855469 136.8125 246.855469 Z M 136.8125 246.855469 " fill-opacity="1" fill-rule="nonzero"/><path fill="#5e17eb" d="M 181.507812 247.597656 C 175.3125 247.597656 170.589844 246.179688 167.332031 243.34375 C 164.09375 240.492188 162.472656 236.484375 162.472656 231.328125 L 162.472656 210.335938 C 162.472656 205.191406 164.125 201.15625 167.433594 198.253906 C 170.757812 195.335938 175.449219 193.867188 181.507812 193.867188 C 187.53125 193.867188 192.207031 195.335938 195.515625 198.253906 C 198.820312 201.15625 200.476562 205.191406 200.476562 210.335938 L 200.476562 231.328125 C 200.476562 236.527344 198.863281 240.542969 195.648438 243.378906 C 192.425781 246.195312 187.71875 247.597656 181.507812 247.597656 Z M 181.507812 239.96875 C 184.613281 239.96875 186.957031 239.175781 188.5625 237.574219 C 190.179688 235.953125 190.992188 233.589844 190.992188 230.484375 L 190.992188 211.078125 C 190.992188 204.691406 187.828125 201.496094 181.507812 201.496094 C 175.136719 201.496094 171.957031 204.691406 171.957031 211.078125 L 171.957031 230.484375 C 171.957031 233.589844 172.773438 235.953125 174.421875 237.574219 C 176.058594 239.175781 178.417969 239.96875 181.507812 239.96875 Z M 181.507812 239.96875 " fill-opacity="1" fill-rule="nonzero"/><path fill="#eec126" d="M 232.320312 229.832031 C 230.40625 229.832031 228.929688 229.324219 227.898438 228.3125 C 226.886719 227.285156 226.378906 225.808594 226.378906 223.890625 L 226.378906 158.957031 C 226.378906 157.050781 226.886719 155.582031 227.898438 154.570312 C 228.929688 153.539062 230.40625 153.015625 232.320312 153.015625 L 247.070312 153.015625 C 253.144531 153.015625 257.851562 154.898438 261.210938 158.652344 C 264.585938 162.417969 266.273438 167.757812 266.273438 174.683594 L 266.273438 208.265625 C 266.273438 215.203125 264.601562 220.535156 261.277344 224.261719 C 257.945312 227.976562 253.210938 229.832031 247.070312 229.832031 Z M 236.472656 220.71875 C 236.472656 221.378906 236.792969 221.699219 237.449219 221.699219 L 245.078125 221.699219 C 248.96875 221.699219 251.792969 220.449219 253.550781 217.953125 C 255.304688 215.453125 256.183594 211.667969 256.183594 206.578125 L 256.183594 176.371094 C 256.183594 171.292969 255.304688 167.480469 253.550781 164.929688 C 251.792969 162.390625 248.96875 161.117188 245.078125 161.117188 L 237.449219 161.117188 C 236.792969 161.117188 236.472656 161.453125 236.472656 162.128906 Z M 236.472656 220.71875 " fill-opacity="1" fill-rule="nonzero"/><path fill="#eec126" d="M 295.652344 230.609375 C 289.054688 230.609375 284.027344 229.105469 280.566406 226.085938 C 277.097656 223.046875 275.371094 218.789062 275.371094 213.292969 L 275.371094 190.917969 C 275.371094 185.449219 277.132812 181.164062 280.667969 178.058594 C 284.195312 174.953125 289.191406 173.402344 295.652344 173.402344 C 302.066406 173.402344 307.035156 174.953125 310.570312 178.058594 C 314.097656 181.164062 315.871094 185.449219 315.871094 190.917969 L 315.871094 213.292969 C 315.871094 218.855469 314.148438 223.132812 310.707031 226.121094 C 307.28125 229.113281 302.269531 230.609375 295.652344 230.609375 Z M 295.652344 222.507812 C 298.960938 222.507812 301.464844 221.65625 303.179688 219.941406 C 304.882812 218.214844 305.746094 215.707031 305.746094 212.417969 L 305.746094 191.726562 C 305.746094 184.9375 302.378906 181.535156 295.652344 181.535156 C 288.851562 181.535156 285.460938 184.9375 285.460938 191.726562 L 285.460938 212.417969 C 285.460938 215.707031 286.339844 218.214844 288.09375 219.941406 C 289.847656 221.65625 292.363281 222.507812 295.652344 222.507812 Z M 295.652344 222.507812 " fill-opacity="1" fill-rule="nonzero"/></svg>