<svg xmlns="http://www.w3.org/2000/svg" xmlns:xlink="http://www.w3.org/1999/xlink" width="200" zoomAndPan="magnify" viewBox="0 0 150 149.999998" height="200" preserveAspectRatio="xMidYMid meet" version="1.0"><defs><g/><clipPath id="f4b098654d"><path d="M 71.359375 53.753906 L 125.957031 53.753906 L 125.957031 97.429688 L 71.359375 97.429688 Z M 71.359375 53.753906 " clip-rule="nonzero"/></clipPath><clipPath id="15bc7e1546"><path d="M 45.269531 34.804688 L 88.945312 34.804688 L 88.945312 60.28125 L 45.269531 60.28125 Z M 45.269531 34.804688 " clip-rule="nonzero"/></clipPath><clipPath id="8141ed7472"><path d="M 23.535156 64.542969 L 74.488281 64.542969 L 74.488281 108.21875 L 23.535156 108.21875 Z M 23.535156 64.542969 " clip-rule="nonzero"/></clipPath></defs><g clip-path="url(#f4b098654d)"><path fill="#5e17eb" d="M 78.046875 53.757812 L 119.269531 53.757812 C 122.960938 53.757812 125.957031 56.816406 125.957031 60.59375 L 125.957031 90.589844 C 125.957031 94.367188 122.960938 97.425781 119.269531 97.425781 L 78.046875 97.425781 C 74.355469 97.425781 71.359375 94.367188 71.359375 90.589844 L 71.359375 60.59375 C 71.359375 56.816406 74.355469 53.757812 78.046875 53.757812 " fill-opacity="1" fill-rule="nonzero"/></g><g clip-path="url(#15bc7e1546)"><path fill="#090000" d="M 78.257812 37.46875 L 75.617188 34.777344 L 63.789062 46.839844 L 66.425781 49.53125 Z M 86.175781 34.777344 L 66.417969 54.902344 L 58.636719 46.972656 L 55.996094 49.664062 L 66.417969 60.28125 L 88.808594 37.46875 Z M 45.445312 49.664062 L 55.867188 60.28125 L 58.507812 57.59375 L 48.085938 46.972656 Z M 45.445312 49.664062 " fill-opacity="1" fill-rule="nonzero"/></g><g clip-path="url(#8141ed7472)"><path fill="#eec126" d="M 30.21875 64.546875 L 67.808594 64.546875 C 71.496094 64.546875 74.488281 67.609375 74.488281 71.382812 L 74.488281 101.378906 C 74.488281 105.152344 71.496094 108.214844 67.808594 108.214844 L 30.21875 108.214844 C 26.527344 108.214844 23.535156 105.152344 23.535156 101.378906 L 23.535156 71.382812 C 23.535156 67.609375 26.527344 64.546875 30.21875 64.546875 " fill-opacity="1" fill-rule="nonzero"/></g><g fill="#5e17eb" fill-opacity="1"><g transform="translate(29.331766, 101.940308)"><g><path d="M 9.890625 0 C 9.179688 0 8.628906 -0.21875 8.234375 -0.65625 C 7.847656 -1.101562 7.65625 -1.742188 7.65625 -2.578125 L 7.65625 -29.4375 C 7.65625 -29.71875 7.515625 -29.859375 7.234375 -29.859375 L 3.78125 -29.859375 C 2.945312 -29.859375 2.304688 -30.007812 1.859375 -30.3125 C 1.421875 -30.613281 1.203125 -31.050781 1.203125 -31.625 C 1.203125 -32.195312 1.421875 -32.632812 1.859375 -32.9375 C 2.304688 -33.238281 2.945312 -33.390625 3.78125 -33.390625 L 16 -33.390625 C 16.832031 -33.390625 17.472656 -33.238281 17.921875 -32.9375 C 18.367188 -32.632812 18.59375 -32.195312 18.59375 -31.625 C 18.59375 -31.050781 18.367188 -30.613281 17.921875 -30.3125 C 17.472656 -30.007812 16.832031 -29.859375 16 -29.859375 L 12.5625 -29.859375 C 12.28125 -29.859375 12.140625 -29.71875 12.140625 -29.4375 L 12.140625 -2.578125 C 12.140625 -1.742188 11.941406 -1.101562 11.546875 -0.65625 C 11.160156 -0.21875 10.609375 0 9.890625 0 Z M 9.890625 0 "/></g></g></g><g fill="#5e17eb" fill-opacity="1"><g transform="translate(49.164761, 101.940308)"><g><path d="M 10.75 0.34375 C 7.882812 0.34375 5.695312 -0.3125 4.1875 -1.625 C 2.6875 -2.945312 1.9375 -4.800781 1.9375 -7.1875 L 1.9375 -16.90625 C 1.9375 -19.289062 2.703125 -21.15625 4.234375 -22.5 C 5.773438 -23.851562 7.945312 -24.53125 10.75 -24.53125 C 13.539062 -24.53125 15.703125 -23.851562 17.234375 -22.5 C 18.765625 -21.15625 19.53125 -19.289062 19.53125 -16.90625 L 19.53125 -7.1875 C 19.53125 -4.78125 18.785156 -2.921875 17.296875 -1.609375 C 15.804688 -0.304688 13.625 0.34375 10.75 0.34375 Z M 10.75 -3.1875 C 12.1875 -3.1875 13.273438 -3.554688 14.015625 -4.296875 C 14.765625 -5.046875 15.140625 -6.140625 15.140625 -7.578125 L 15.140625 -16.5625 C 15.140625 -19.519531 13.675781 -21 10.75 -21 C 7.800781 -21 6.328125 -19.519531 6.328125 -16.5625 L 6.328125 -7.578125 C 6.328125 -6.140625 6.707031 -5.046875 7.46875 -4.296875 C 8.226562 -3.554688 9.320312 -3.1875 10.75 -3.1875 Z M 10.75 -3.1875 "/></g></g></g><g fill="#eec126" fill-opacity="1"><g transform="translate(78.627303, 94.058866)"><g><path d="M 4.8125 0 C 3.925781 0 3.242188 -0.234375 2.765625 -0.703125 C 2.296875 -1.179688 2.0625 -1.863281 2.0625 -2.75 L 2.0625 -32.8125 C 2.0625 -33.695312 2.296875 -34.375 2.765625 -34.84375 C 3.242188 -35.320312 3.925781 -35.5625 4.8125 -35.5625 L 11.640625 -35.5625 C 14.453125 -35.5625 16.632812 -34.691406 18.1875 -32.953125 C 19.75 -31.210938 20.53125 -28.738281 20.53125 -25.53125 L 20.53125 -9.984375 C 20.53125 -6.773438 19.757812 -4.304688 18.21875 -2.578125 C 16.675781 -0.859375 14.484375 0 11.640625 0 Z M 6.734375 -4.21875 C 6.734375 -3.914062 6.882812 -3.765625 7.1875 -3.765625 L 10.71875 -3.765625 C 12.519531 -3.765625 13.828125 -4.34375 14.640625 -5.5 C 15.453125 -6.65625 15.859375 -8.410156 15.859375 -10.765625 L 15.859375 -24.75 C 15.859375 -27.101562 15.453125 -28.867188 14.640625 -30.046875 C 13.828125 -31.222656 12.519531 -31.8125 10.71875 -31.8125 L 7.1875 -31.8125 C 6.882812 -31.8125 6.734375 -31.65625 6.734375 -31.34375 Z M 6.734375 -4.21875 "/></g></g></g><g fill="#eec126" fill-opacity="1"><g transform="translate(101.307324, 94.058866)"><g><path d="M 11.453125 0.359375 C 8.398438 0.359375 6.070312 -0.335938 4.46875 -1.734375 C 2.863281 -3.140625 2.0625 -5.113281 2.0625 -7.65625 L 2.0625 -18.015625 C 2.0625 -20.546875 2.878906 -22.53125 4.515625 -23.96875 C 6.148438 -25.40625 8.460938 -26.125 11.453125 -26.125 C 14.421875 -26.125 16.722656 -25.40625 18.359375 -23.96875 C 19.992188 -22.53125 20.8125 -20.546875 20.8125 -18.015625 L 20.8125 -7.65625 C 20.8125 -5.082031 20.015625 -3.101562 18.421875 -1.71875 C 16.835938 -0.332031 14.515625 0.359375 11.453125 0.359375 Z M 11.453125 -3.390625 C 12.984375 -3.390625 14.144531 -3.785156 14.9375 -4.578125 C 15.726562 -5.378906 16.125 -6.539062 16.125 -8.0625 L 16.125 -17.640625 C 16.125 -20.785156 14.566406 -22.359375 11.453125 -22.359375 C 8.304688 -22.359375 6.734375 -20.785156 6.734375 -17.640625 L 6.734375 -8.0625 C 6.734375 -6.539062 7.140625 -5.378906 7.953125 -4.578125 C 8.765625 -3.785156 9.929688 -3.390625 11.453125 -3.390625 Z M 11.453125 -3.390625 "/></g></g></g></svg>